<svg xmlns="http://www.w3.org/2000/svg" xmlns:xlink="http://www.w3.org/1999/xlink" width="2000" zoomAndPan="magnify" viewBox="0 0 1500 1499.999933" height="2000" preserveAspectRatio="xMidYMid meet" version="1.0"><defs><g/><clipPath id="7bd5240f93"><path d="M 341.476562 576.914062 L 540.226562 576.914062 L 540.226562 923.414062 L 341.476562 923.414062 Z M 341.476562 576.914062 " clip-rule="nonzero"/></clipPath></defs><g clip-path="url(#7bd5240f93)"><path fill="#5a7d6c" d="M 698.519531 771.480469 L 570.972656 771.480469 L 657.195312 857.703125 L 628.714844 886.183594 L 540.851562 798.320312 L 540.851562 923.085938 L 500.59375 923.085938 L 500.59375 799.820312 L 409.089844 891.320312 L 378.757812 860.988281 L 468.261719 771.480469 L 341.640625 771.480469 L 341.640625 728.515625 L 471.117188 728.515625 L 383.96875 641.363281 L 412.445312 612.886719 L 500.59375 701.105469 L 500.59375 576.914062 L 540.851562 576.914062 L 540.851562 698.820312 L 631.070312 608.601562 L 661.40625 639.007812 L 571.898438 728.515625 L 698.519531 728.515625 Z M 698.519531 771.480469 " fill-opacity="1" fill-rule="nonzero"/></g><g fill="#333d36" fill-opacity="1"><g transform="translate(564.098961, 695.926624)"><g><path d="M 48.53125 0 L 48.53125 -96.78125 L 68.78125 -96.78125 L 68.78125 0 Z M 7.921875 0 L 7.921875 -96.78125 L 28.15625 -96.78125 L 28.15625 0 Z M 19.65625 -41.203125 L 19.65625 -57.921875 L 56.890625 -57.921875 L 56.890625 -41.203125 Z M 19.65625 -41.203125 "/></g></g></g><g fill="#333d36" fill-opacity="1"><g transform="translate(636.390768, 695.926624)"><g><path d="M 37.546875 1.90625 C 31.867188 1.90625 27.023438 0.804688 23.015625 -1.390625 C 19.015625 -3.585938 15.742188 -6.785156 13.203125 -10.984375 C 10.660156 -15.191406 8.800781 -20.425781 7.625 -26.6875 C 6.445312 -32.945312 5.859375 -40.132812 5.859375 -48.25 C 5.859375 -59.78125 7.003906 -69.257812 9.296875 -76.6875 C 11.597656 -84.125 15.117188 -89.648438 19.859375 -93.265625 C 24.609375 -96.878906 30.550781 -98.6875 37.6875 -98.6875 C 43.257812 -98.6875 48.070312 -97.660156 52.125 -95.609375 C 56.1875 -93.554688 59.5625 -90.476562 62.25 -86.375 C 64.9375 -82.269531 66.914062 -77.0625 68.1875 -70.75 C 69.457031 -64.445312 70.09375 -57.09375 70.09375 -48.6875 C 70.09375 -40.375 69.457031 -33.0625 68.1875 -26.75 C 66.914062 -20.445312 64.9375 -15.144531 62.25 -10.84375 C 59.5625 -6.550781 56.1875 -3.351562 52.125 -1.25 C 48.070312 0.851562 43.210938 1.90625 37.546875 1.90625 Z M 37.546875 -13.78125 C 39.398438 -13.78125 41.035156 -14.460938 42.453125 -15.828125 C 43.867188 -17.203125 45.140625 -19.28125 46.265625 -22.0625 C 47.390625 -24.851562 48.21875 -28.375 48.75 -32.625 C 49.289062 -36.875 49.5625 -41.785156 49.5625 -47.359375 C 49.5625 -55.085938 49.046875 -61.585938 48.015625 -66.859375 C 46.992188 -72.140625 45.578125 -76.125 43.765625 -78.8125 C 41.960938 -81.507812 39.789062 -82.859375 37.25 -82.859375 C 35.875 -82.859375 34.523438 -82.316406 33.203125 -81.234375 C 31.890625 -80.160156 30.71875 -78.328125 29.6875 -75.734375 C 28.664062 -73.148438 27.882812 -69.632812 27.34375 -65.1875 C 26.8125 -60.738281 26.546875 -55.140625 26.546875 -48.390625 C 26.546875 -41.742188 26.835938 -36.171875 27.421875 -31.671875 C 28.003906 -27.171875 28.804688 -23.625 29.828125 -21.03125 C 30.859375 -18.445312 32.035156 -16.59375 33.359375 -15.46875 C 34.679688 -14.34375 36.078125 -13.78125 37.546875 -13.78125 Z M 37.546875 -13.78125 "/></g></g></g><g fill="#333d36" fill-opacity="1"><g transform="translate(707.949397, 695.926624)"><g><path d="M 7.921875 0 L 7.921875 -96.78125 L 31.96875 -96.78125 L 55.71875 -31.09375 L 57.484375 -31.09375 L 56.3125 -96.78125 L 75.234375 -96.78125 L 75.234375 0 L 51.90625 0 L 27.28125 -68.1875 L 25.65625 -68.1875 L 26.828125 0 Z M 7.921875 0 "/></g></g></g><g fill="#333d36" fill-opacity="1"><g transform="translate(786.839878, 695.926624)"><g><path d="M 37.546875 1.90625 C 31.867188 1.90625 27.023438 0.804688 23.015625 -1.390625 C 19.015625 -3.585938 15.742188 -6.785156 13.203125 -10.984375 C 10.660156 -15.191406 8.800781 -20.425781 7.625 -26.6875 C 6.445312 -32.945312 5.859375 -40.132812 5.859375 -48.25 C 5.859375 -59.78125 7.003906 -69.257812 9.296875 -76.6875 C 11.597656 -84.125 15.117188 -89.648438 19.859375 -93.265625 C 24.609375 -96.878906 30.550781 -98.6875 37.6875 -98.6875 C 43.257812 -98.6875 48.070312 -97.660156 52.125 -95.609375 C 56.1875 -93.554688 59.5625 -90.476562 62.25 -86.375 C 64.9375 -82.269531 66.914062 -77.0625 68.1875 -70.75 C 69.457031 -64.445312 70.09375 -57.09375 70.09375 -48.6875 C 70.09375 -40.375 69.457031 -33.0625 68.1875 -26.75 C 66.914062 -20.445312 64.9375 -15.144531 62.25 -10.84375 C 59.5625 -6.550781 56.1875 -3.351562 52.125 -1.25 C 48.070312 0.851562 43.210938 1.90625 37.546875 1.90625 Z M 37.546875 -13.78125 C 39.398438 -13.78125 41.035156 -14.460938 42.453125 -15.828125 C 43.867188 -17.203125 45.140625 -19.28125 46.265625 -22.0625 C 47.390625 -24.851562 48.21875 -28.375 48.75 -32.625 C 49.289062 -36.875 49.5625 -41.785156 49.5625 -47.359375 C 49.5625 -55.085938 49.046875 -61.585938 48.015625 -66.859375 C 46.992188 -72.140625 45.578125 -76.125 43.765625 -78.8125 C 41.960938 -81.507812 39.789062 -82.859375 37.25 -82.859375 C 35.875 -82.859375 34.523438 -82.316406 33.203125 -81.234375 C 31.890625 -80.160156 30.71875 -78.328125 29.6875 -75.734375 C 28.664062 -73.148438 27.882812 -69.632812 27.34375 -65.1875 C 26.8125 -60.738281 26.546875 -55.140625 26.546875 -48.390625 C 26.546875 -41.742188 26.835938 -36.171875 27.421875 -31.671875 C 28.003906 -27.171875 28.804688 -23.625 29.828125 -21.03125 C 30.859375 -18.445312 32.035156 -16.59375 33.359375 -15.46875 C 34.679688 -14.34375 36.078125 -13.78125 37.546875 -13.78125 Z M 37.546875 -13.78125 "/></g></g></g><g fill="#333d36" fill-opacity="1"><g transform="translate(858.398496, 695.926624)"><g><path d="M 7.921875 0 L 7.921875 -96.78125 L 36.078125 -96.78125 C 38.023438 -96.78125 40.390625 -96.582031 43.171875 -96.1875 C 45.960938 -95.800781 48.820312 -95.070312 51.75 -94 C 54.6875 -92.925781 57.398438 -91.3125 59.890625 -89.15625 C 62.390625 -87.007812 64.421875 -84.195312 65.984375 -80.71875 C 67.546875 -77.25 68.328125 -72.875 68.328125 -67.59375 C 68.328125 -64.664062 67.984375 -61.878906 67.296875 -59.234375 C 66.617188 -56.597656 65.519531 -54.179688 64 -51.984375 C 62.488281 -49.785156 60.410156 -47.898438 57.765625 -46.328125 C 55.128906 -44.765625 51.859375 -43.59375 47.953125 -42.8125 L 47.953125 -41.359375 C 52.253906 -40.867188 55.550781 -39.617188 57.84375 -37.609375 C 60.144531 -35.609375 61.878906 -33.039062 63.046875 -29.90625 C 64.222656 -26.78125 65.203125 -23.265625 65.984375 -19.359375 L 70.234375 0 L 49.125 0 L 46.1875 -17.015625 C 45.601562 -20.234375 44.921875 -23.140625 44.140625 -25.734375 C 43.359375 -28.328125 42.160156 -30.40625 40.546875 -31.96875 C 38.929688 -33.53125 36.609375 -34.3125 33.578125 -34.3125 L 28.15625 -34.3125 L 28.15625 0 Z M 28.15625 -47.953125 L 33 -47.953125 C 34.757812 -47.953125 36.394531 -48.125 37.90625 -48.46875 C 39.414062 -48.8125 40.804688 -49.375 42.078125 -50.15625 C 43.347656 -50.9375 44.421875 -52.007812 45.296875 -53.375 C 46.179688 -54.75 46.867188 -56.390625 47.359375 -58.296875 C 47.847656 -60.203125 48.09375 -62.519531 48.09375 -65.25 C 48.09375 -67.601562 47.875 -69.65625 47.4375 -71.40625 C 47 -73.164062 46.363281 -74.632812 45.53125 -75.8125 C 44.695312 -76.988281 43.71875 -77.914062 42.59375 -78.59375 C 41.46875 -79.28125 40.144531 -79.769531 38.625 -80.0625 C 37.113281 -80.351562 35.53125 -80.5 33.875 -80.5 L 28.15625 -80.5 Z M 28.15625 -47.953125 "/></g></g></g><g fill="#333d36" fill-opacity="1"><g transform="translate(927.464317, 695.926624)"><g><path d="M 1.609375 0 L 19.796875 -96.78125 L 51.46875 -96.78125 L 69.359375 0 L 47.515625 0 L 36.359375 -80.796875 L 34.3125 -80.796875 L 22.734375 0 Z M 17.59375 -17.296875 L 17.59375 -30.5 L 54.546875 -30.5 L 54.546875 -17.296875 Z M 17.59375 -17.296875 "/></g></g></g><g fill="#333d36" fill-opacity="1"><g transform="translate(994.183916, 695.926624)"><g><path d="M 20.96875 0 L 20.96875 -96.78125 L 41.203125 -96.78125 L 41.203125 0 Z M 1.46875 -80.21875 L 1.46875 -96.78125 L 60.703125 -96.78125 L 60.703125 -80.21875 Z M 1.46875 -80.21875 "/></g></g></g><g fill="#333d36" fill-opacity="1"><g transform="translate(1051.958721, 695.926624)"><g><path d="M 1.609375 0 L 19.796875 -96.78125 L 51.46875 -96.78125 L 69.359375 0 L 47.515625 0 L 36.359375 -80.796875 L 34.3125 -80.796875 L 22.734375 0 Z M 17.59375 -17.296875 L 17.59375 -30.5 L 54.546875 -30.5 L 54.546875 -17.296875 Z M 17.59375 -17.296875 "/></g></g></g><g fill="#333d36" fill-opacity="1"><g transform="translate(564.098961, 879.676608)"><g><path d="M 28.078125 0 L 28.078125 -24.703125 L 52.109375 -24.703125 C 55.410156 -24.703125 58.484375 -25.488281 61.328125 -27.0625 C 64.171875 -28.632812 66.640625 -31.253906 68.734375 -34.921875 C 70.828125 -38.597656 72.472656 -43.617188 73.671875 -49.984375 C 74.867188 -56.347656 75.46875 -64.394531 75.46875 -74.125 C 75.46875 -85.0625 74.71875 -93.820312 73.21875 -100.40625 C 71.726562 -107 69.707031 -111.941406 67.15625 -115.234375 C 64.613281 -118.523438 61.878906 -120.734375 58.953125 -121.859375 C 56.035156 -122.984375 53.082031 -123.546875 50.09375 -123.546875 L 28.078125 -123.546875 L 28.078125 -148.25 L 50.3125 -148.25 C 61.25 -148.25 70.945312 -145.363281 79.40625 -139.59375 C 87.863281 -133.832031 94.488281 -125.410156 99.28125 -114.328125 C 104.070312 -103.253906 106.46875 -89.703125 106.46875 -73.671875 C 106.46875 -60.796875 105.191406 -49.941406 102.640625 -41.109375 C 100.097656 -32.273438 96.726562 -25.160156 92.53125 -19.765625 C 88.34375 -14.378906 83.851562 -10.257812 79.0625 -7.40625 C 74.269531 -4.5625 69.628906 -2.613281 65.140625 -1.5625 C 60.648438 -0.519531 56.753906 0 53.453125 0 Z M 12.125 0 L 12.125 -148.25 L 43.125 -148.25 L 43.125 0 Z M 12.125 0 "/></g></g></g><g fill="#333d36" fill-opacity="1"><g transform="translate(672.364294, 879.676608)"><g><path d="M 2.46875 0 L 30.328125 -148.25 L 78.84375 -148.25 L 106.25 0 L 72.78125 0 L 55.703125 -123.765625 L 52.5625 -123.765625 L 34.8125 0 Z M 26.953125 -26.5 L 26.953125 -46.71875 L 83.5625 -46.71875 L 83.5625 -26.5 Z M 26.953125 -26.5 "/></g></g></g><g fill="#333d36" fill-opacity="1"><g transform="translate(774.564969, 879.676608)"><g><path d="M 26.953125 0 L 2.921875 -148.25 L 37.28125 -148.25 L 50.765625 -26.5 L 53.453125 -26.5 L 65.59375 -148.25 L 103.328125 -148.25 L 115.234375 -26.5 L 118.15625 -26.5 L 132.078125 -148.25 L 163.078125 -148.25 L 139.265625 0 L 96.8125 0 L 85.359375 -122.203125 L 82.890625 -122.203125 L 69.640625 0 Z M 26.953125 0 "/></g></g></g><g fill="#333d36" fill-opacity="1"><g transform="translate(934.04302, 879.676608)"><g><path d="M 12.125 0 L 12.125 -148.25 L 43.578125 -148.25 L 43.578125 0 Z M 12.125 0 "/></g></g></g><g fill="#333d36" fill-opacity="1"><g transform="translate(983.009446, 879.676608)"><g><path d="M 28.078125 0 L 28.078125 -24.703125 L 52.109375 -24.703125 C 55.410156 -24.703125 58.484375 -25.488281 61.328125 -27.0625 C 64.171875 -28.632812 66.640625 -31.253906 68.734375 -34.921875 C 70.828125 -38.597656 72.472656 -43.617188 73.671875 -49.984375 C 74.867188 -56.347656 75.46875 -64.394531 75.46875 -74.125 C 75.46875 -85.0625 74.71875 -93.820312 73.21875 -100.40625 C 71.726562 -107 69.707031 -111.941406 67.15625 -115.234375 C 64.613281 -118.523438 61.878906 -120.734375 58.953125 -121.859375 C 56.035156 -122.984375 53.082031 -123.546875 50.09375 -123.546875 L 28.078125 -123.546875 L 28.078125 -148.25 L 50.3125 -148.25 C 61.25 -148.25 70.945312 -145.363281 79.40625 -139.59375 C 87.863281 -133.832031 94.488281 -125.410156 99.28125 -114.328125 C 104.070312 -103.253906 106.46875 -89.703125 106.46875 -73.671875 C 106.46875 -60.796875 105.191406 -49.941406 102.640625 -41.109375 C 100.097656 -32.273438 96.726562 -25.160156 92.53125 -19.765625 C 88.34375 -14.378906 83.851562 -10.257812 79.0625 -7.40625 C 74.269531 -4.5625 69.628906 -2.613281 65.140625 -1.5625 C 60.648438 -0.519531 56.753906 0 53.453125 0 Z M 12.125 0 L 12.125 -148.25 L 43.125 -148.25 L 43.125 0 Z M 12.125 0 "/></g></g></g></svg>