<svg xmlns="http://www.w3.org/2000/svg" xmlns:xlink="http://www.w3.org/1999/xlink" width="2000" zoomAndPan="magnify" viewBox="0 0 1500 1499.999933" height="2000" preserveAspectRatio="xMidYMid meet" version="1.0"><defs><g/><clipPath id="9bc48d7423"><rect x="0" width="1464" y="0" height="1214"/></clipPath></defs><rect x="-150" width="1800" fill="#ffffff" y="-149.999993" height="1799.99992" fill-opacity="1"/><rect x="-150" width="1800" fill="#5a7d6c" y="-149.999993" height="1799.99992" fill-opacity="1"/><g transform="matrix(1, 0, 0, 1, 19, 143)"><g clip-path="url(#9bc48d7423)"><g fill="#faf9f6" fill-opacity="1"><g transform="translate(0.609932, 967.178809)"><g><path d="M 63.125 0 L 63.125 -729.171875 L 212.875 -729.171875 L 212.875 -435.046875 L 529.015625 -435.046875 L 529.015625 -729.171875 L 678.765625 -729.171875 L 678.765625 0 L 529.015625 0 L 529.015625 -309.765625 L 212.875 -309.765625 L 212.875 0 Z M 63.125 0 "/></g></g><g transform="translate(742.500218, 967.178809)"><g><path d="M 320.046875 0 L 131.15625 0 L 131.15625 -128.21875 L 312.703125 -128.21875 C 360.015625 -128.21875 399.570312 -136.695312 431.375 -153.65625 C 463.1875 -170.625 487.082031 -196.644531 503.0625 -231.71875 C 519.050781 -266.789062 527.046875 -311.242188 527.046875 -365.078125 C 527.046875 -418.578125 519.050781 -462.78125 503.0625 -497.6875 C 487.082031 -532.59375 463.269531 -558.53125 431.625 -575.5 C 399.976562 -592.46875 360.664062 -600.953125 313.6875 -600.953125 L 127.71875 -600.953125 L 127.71875 -729.171875 L 322.5 -729.171875 C 395.90625 -729.171875 458.953125 -714.566406 511.640625 -685.359375 C 564.328125 -656.160156 604.941406 -614.316406 633.484375 -559.828125 C 662.035156 -505.347656 676.3125 -440.429688 676.3125 -365.078125 C 676.3125 -289.378906 662.117188 -224.289062 633.734375 -169.8125 C 605.347656 -115.332031 564.484375 -73.410156 511.140625 -44.046875 C 457.804688 -14.679688 394.109375 0 320.046875 0 Z M 212.875 -729.171875 L 212.875 0 L 63.125 0 L 63.125 -729.171875 Z M 212.875 -729.171875 "/></g></g></g></g></g></svg>