<svg xmlns="http://www.w3.org/2000/svg" xmlns:xlink="http://www.w3.org/1999/xlink" width="2000" zoomAndPan="magnify" viewBox="0 0 1500 1499.999933" height="2000" preserveAspectRatio="xMidYMid meet" version="1.0"><path fill="#5a7d6c" d="M 1241.65625 693.015625 C 1138.863281 794.863281 959.859375 845 869.988281 864.785156 C 988.191406 810.375 1120.222656 715.691406 1229.40625 552.335938 C 1229.40625 552.300781 1269.011719 597.21875 1241.65625 693.015625 Z M 1241.65625 693.015625 " fill-opacity="1" fill-rule="nonzero"/><path fill="#5a7d6c" d="M 0 1064.210938 C 0 1064.210938 114.300781 757.046875 361.910156 721.34375 C 609.554688 685.644531 652.390625 788 930.988281 688 C 930.988281 688 978.601562 838 680.988281 876.089844 C 680.988281 876.089844 650.035156 935.613281 742.898438 935.613281 C 835.765625 935.613281 1164.332031 894.125 1392.933594 552.265625 C 1392.933594 552.265625 1500.066406 673.699219 1240.542969 942.746094 C 981.023438 1211.789062 652.421875 1349.945312 0 1064.210938 Z M 0 1064.210938 " fill-opacity="1" fill-rule="nonzero"/><path fill="#333d36" d="M 1004.710938 205.398438 C 957.46875 158.15625 880.921875 158.15625 833.679688 205.398438 L 770.019531 269.023438 L 706.394531 205.398438 C 659.152344 158.15625 582.570312 158.15625 535.363281 205.398438 C 511.742188 229.015625 499.964844 259.9375 499.964844 290.894531 C 499.964844 321.851562 511.777344 352.804688 535.363281 376.425781 L 770.054688 611.117188 L 770.085938 611.117188 L 1004.777344 376.425781 C 1051.953125 329.183594 1051.953125 252.605469 1004.710938 205.398438 Z M 856.492188 422.558594 L 802.019531 422.558594 L 802.019531 477.03125 L 737.953125 477.03125 L 737.953125 422.558594 L 683.511719 422.558594 L 683.511719 358.492188 L 737.953125 358.492188 L 737.953125 304.050781 L 802.019531 304.050781 L 802.019531 358.527344 L 856.492188 358.527344 Z M 856.492188 422.558594 " fill-opacity="1" fill-rule="nonzero"/></svg>